<?xml version="1.0" encoding="UTF-8"?>
<svg id="Layer_1" xmlns="http://www.w3.org/2000/svg" version="1.1" viewBox="0 0 400 400">
  <!-- Generator: Adobe Illustrator 30.3.0, SVG Export Plug-In . SVG Version: 2.1.3 Build 182)  -->
  <defs>
    <style>
      .st0 {
        fill: #5f725b;
      }
    </style>
  </defs>
  <circle class="st0" cx="106.67" cy="195.3" r="50"/>
  <path class="st0" d="M356.67,195.3c0,27-21.41,49.01-48.18,49.96-.6.03-1.21.04-1.82.04-27.62,0-50,22.38-50,50l-.24,4.92c-2.47,25.3-23.81,45.08-49.76,45.08-27.62,0-50-22.39-50-50,0-24.84,18.1-45.44,41.83-49.33,2.66-.44,5.39-.67,8.17-.67,25.95,0,47.29-19.78,49.76-45.08.16-1.62.24-3.26.24-4.92s-.08-3.3-.24-4.92c-2.47-25.31-23.81-45.08-49.76-45.08-2.78,0-5.51-.23-8.17-.67-23.73-3.89-41.83-24.5-41.83-49.33,0-27.62,22.38-50,50-50,25.95,0,47.29,19.77,49.76,45.08.16,1.62.24,3.26.24,4.92,0,27.61,22.38,50,50,50,.61,0,1.22.01,1.82.04,26.77.95,48.18,22.95,48.18,49.96Z"/>
</svg>